# xmcd CD database file
#
# Track frame offsets:
#	150
#	12783
#	30377
#	45578
#	57939
#	77481
#	99975
#	115982
#	136339
#	169452
#	185072
#	200161
#	214723
#	225834
#
# Disc length: 3126 seconds
#
# Revision: 0
# Processed by: cddbd v1.5.2PL0 Copyright (c) Steve Scherf et al.
# Submitted via: CDex 1.70beta2
#
DISCID=b40c340e
DTITLE=Freddy Couché - A portrait of
DYEAR=1999
DGENRE=Jazz
TTITLE0=Thats a plenty
TTITLE1=What a difference a day made
TTITLE2=Doctor Jazz
TTITLE3=What are you doing the rest of your life
TTITLE4=I will wait for you
TTITLE5=Do you know what it means to miss N.O.
TTITLE6=True Love - Moonriver - Edelweiss
TTITLE7=Petite fleur
TTITLE8=I'm confession
TTITLE9=Pour Toi
TTITLE10=The mission
TTITLE11=Sweet Sue, just you
TTITLE12=Bourbon Street Parade
TTITLE13=Muskrat Ramble
EXTD=YEAR: 1999
EXTT0=
EXTT1=
EXTT2=
EXTT3=
EXTT4=
EXTT5=
EXTT6=
EXTT7=
EXTT8=
EXTT9=
EXTT10=
EXTT11=
EXTT12=
EXTT13=
PLAYORDER=
